<?xml version="1.0" encoding="utf-8"?>
<!-- Generator: Adobe Illustrator 19.1.0, SVG Export Plug-In . SVG Version: 6.00 Build 0)  -->
<!DOCTYPE svg PUBLIC "-//W3C//DTD SVG 1.1//EN" "http://www.w3.org/Graphics/SVG/1.1/DTD/svg11.dtd">
<svg version="1.1" id="Layer_1" xmlns="http://www.w3.org/2000/svg" xmlns:xlink="http://www.w3.org/1999/xlink" x="0px" y="0px"
	 width="240px" height="64.2px" viewBox="0 0 240 64.2" style="enable-background:new 0 0 240 64.2;" xml:space="preserve">
<style type="text/css">
	.st0{fill-rule:evenodd;clip-rule:evenodd;fill:#666666;}
	.st1{opacity:0.2;}
	.st2{fill-rule:evenodd;clip-rule:evenodd;fill:#414141;}
	.st3{fill-rule:evenodd;clip-rule:evenodd;fill:#0585DE;}
</style>
<g id="Plexus_copy_3_1_">
	<g>
		<path class="st0" d="M92.3,14.5c-1.2-1.5-2.6-2.5-4.3-3.2c-1.7-0.6-4.1-0.9-7-0.9H68.8v0.9H70c1.3,0,2.2,0.4,2.8,1.1
			c0.4,0.5,0.7,1.8,0.7,4v21.8c0,1.9-0.2,3.1-0.5,3.7c-0.6,0.9-1.6,1.4-3,1.4h-1.3v0.9H83v-0.9h-1.3c-1.3,0-2.2-0.4-2.8-1.1
			c-0.5-0.5-0.7-1.8-0.7-4v-9.8c1.1,0.2,2.1,0.4,3,0.5c0.9,0.1,1.8,0.2,2.6,0.2c3.3,0,5.8-0.9,7.6-2.6c1.8-1.7,2.7-4,2.7-6.7
			C94.1,17.8,93.5,16,92.3,14.5z M86.7,25.5c-1.2,1.3-2.7,2-4.4,2c-0.5,0-1,0-1.7-0.1c-0.7-0.1-1.4-0.2-2.3-0.4V12.9
			c1.3-0.3,2.4-0.5,3.2-0.5c1.4,0,2.6,0.3,3.7,0.9c1.1,0.6,1.9,1.6,2.5,2.8c0.6,1.3,0.9,2.6,0.9,4.1C88.5,22.4,87.9,24.2,86.7,25.5z
			 M121.7,34.9c-0.9,2.1-1.7,3.6-2.6,4.6c-0.9,1-1.8,1.6-2.8,2c-1,0.4-2.8,0.6-5.4,0.6h-2.4c-2.1,0-3.4-0.1-3.8-0.2
			c-0.4-0.2-0.7-0.4-0.9-0.8c-0.3-0.5-0.4-1.5-0.4-2.8V17c0-2,0.1-3.3,0.4-3.8c0.3-0.5,0.7-1,1.5-1.3c0.7-0.3,2-0.5,3.7-0.5v-0.9
			H93.9v0.9h1.3c1.3,0,2.2,0.4,2.8,1.1c0.5,0.5,0.7,1.9,0.7,4v21.8c0,1.9-0.2,3.2-0.5,3.7c-0.6,0.9-1.6,1.4-3,1.4h-1.3v0.9h25.8
			l2.8-9.2L121.7,34.9z M149.1,35.8c-1.1,2.1-2.1,3.6-3.1,4.7c-0.8,0.8-1.6,1.3-2.5,1.6c-0.9,0.3-2.2,0.4-4.1,0.4h-5.6
			c-0.9,0-1.5-0.1-1.9-0.3c-0.3-0.2-0.6-0.4-0.7-0.8s-0.2-1.2-0.2-2.7V27.5h7.3c1.4,0,2.4,0.2,3.1,0.5c0.7,0.3,1.2,0.8,1.4,1.4
			c0.2,0.5,0.5,1.5,0.7,3.2h0.9V20.7h-0.9c-0.1,1.9-0.6,3.3-1.4,4c-0.6,0.6-1.9,0.9-3.8,0.9H131V12.3h9.1c1.7,0,2.8,0.1,3.5,0.4
			c0.8,0.3,1.4,0.9,1.9,1.5c0.4,0.7,0.8,1.9,1.1,3.7h1l-0.4-7.4h-25.6v0.9h1.2c1.4,0,2.4,0.3,2.9,1c0.4,0.5,0.6,1.8,0.6,4v21.9
			c0,1.6-0.1,2.7-0.3,3.3c-0.2,0.5-0.5,0.9-1.1,1.2c-0.7,0.4-1.4,0.6-2.2,0.6h-1.2v0.9h25.6l2.9-8.5H149.1z M205.5,11.4h1.3
			c1.3,0,2.2,0.4,2.8,1.1c0.5,0.5,0.7,1.9,0.7,4v13.7c0,3.6-0.3,6.1-0.9,7.6c-0.6,1.5-1.8,2.7-3.5,3.7c-1.7,1-3.7,1.4-5.8,1.4
			c-1.7,0-3.1-0.3-4.3-0.9c-1.2-0.6-2.1-1.4-2.7-2.3c-0.6-0.9-1.1-2.3-1.3-4c-0.2-1.7-0.4-3.2-0.4-4.5V16.4c0-1.9,0.2-3.1,0.6-3.7
			c0.6-0.9,1.6-1.3,2.9-1.3h1.3v-0.9h-13h-1.4h-10.4v0.9c1.2,0,2,0.1,2.3,0.2c0.4,0.1,0.7,0.4,0.9,0.7c0.2,0.3,0.3,0.6,0.3,0.9
			c0,0.3-0.1,0.7-0.2,1c-0.2,0.3-0.6,0.9-1.3,1.8l-5.9,7.6l-5.1-7.7c-0.8-1.2-1.2-2.1-1.2-2.7c0-0.5,0.2-0.9,0.7-1.3
			c0.5-0.4,1.4-0.6,2.7-0.6v-0.9h-15.4v0.9c1.6,0,3.1,0.5,4.3,1.3c1.2,0.8,2.8,2.6,4.5,5.2l6.6,9.7l-7.9,10.1
			c-1.2,1.5-2.2,2.6-3.1,3.4c-0.9,0.7-1.9,1.3-2.9,1.7c-0.6,0.3-1.3,0.4-2.2,0.5v0.9h11.8v-0.9c-1.2,0-2.1-0.2-2.5-0.6
			c-0.4-0.3-0.7-0.8-0.7-1.3c0-0.3,0.1-0.7,0.2-1c0.1-0.3,0.6-1,1.3-1.9l7-9.1l5.6,8.7c0.8,1.2,1.2,1.9,1.3,2.2
			c0.1,0.4,0.2,0.8,0.2,1.1c0,0.3-0.1,0.6-0.3,0.9c-0.2,0.3-0.5,0.5-0.8,0.7c-0.5,0.2-1.2,0.3-2.1,0.3v0.9h14.3v-0.9
			c-1.5-0.1-2.7-0.5-3.6-1.3c-1-0.8-2.4-2.7-4.4-5.7l-7.1-10.8l6.6-8.6c1.3-1.7,2.4-2.9,3.1-3.6c0.7-0.6,1.5-1.2,2.4-1.5
			c0.6-0.2,1.3-0.4,2.2-0.4c1.2,0,2.1,0.3,2.7,1c0.6,0.6,0.8,2,0.8,4.1v13.2c0,4.1,0.3,6.8,0.8,8.3c0.8,2.2,2.1,3.9,4,5.2
			c1.9,1.3,4.6,1.9,8.3,1.9c3.3,0,6-0.7,7.9-2c1.9-1.3,3.2-2.9,3.9-4.8c0.7-1.9,1-4.5,1-7.9V16.6c0-1.9,0.2-3.1,0.5-3.6
			c0.7-1.1,1.7-1.7,3-1.7h1.3v-0.9h-11.8V11.4z M239.1,31.8c-0.6-1.2-1.5-2.3-2.6-3.2c-1.1-0.9-3.3-2.2-6.4-3.9
			c-3.8-2.1-6.2-3.7-7.2-5c-0.7-0.8-1.1-1.8-1.1-2.8c0-1.3,0.6-2.5,1.7-3.6c1.1-1.1,2.5-1.6,4.2-1.6c1.5,0,3,0.4,4.4,1.2
			c1.4,0.8,2.5,1.8,3.3,3.2c0.8,1.3,1.3,3.1,1.6,5.4h0.9V9.7h-0.9c-0.2,0.8-0.4,1.3-0.6,1.6c-0.3,0.3-0.6,0.4-1,0.4
			c-0.4,0-1-0.2-1.9-0.6c-2-0.9-3.9-1.3-5.6-1.3c-2.8,0-5.2,0.9-7,2.6c-1.8,1.8-2.7,3.8-2.7,6.3c0,1.4,0.3,2.7,0.9,3.8
			c0.6,1.2,1.5,2.2,2.7,3.2c1.2,1,3.2,2.3,6.1,3.9c2.8,1.6,4.6,2.7,5.2,3.2c0.9,0.7,1.6,1.5,2.1,2.4c0.4,0.8,0.7,1.7,0.7,2.5
			c0,1.5-0.6,2.8-1.8,3.9c-1.2,1.1-2.8,1.6-4.8,1.6c-1.8,0-3.4-0.4-4.9-1.2c-1.5-0.8-2.6-1.8-3.3-3c-0.7-1.2-1.3-3-1.7-5.4h-0.9V45
			h0.9c0.1-0.8,0.3-1.3,0.5-1.5c0.2-0.2,0.6-0.4,1-0.4c0.4,0,1.4,0.3,3,0.8c1.6,0.5,2.6,0.8,3.2,0.9c0.9,0.1,1.8,0.2,2.7,0.2
			c3.1,0,5.6-0.9,7.5-2.8c2-1.9,2.9-4.1,2.9-6.6C240,34.3,239.7,33,239.1,31.8z"/>
	</g>
</g>
<g id="Shape_25_copy_2_1_" class="st1">
	<g>
		<ellipse class="st2" cx="31.2" cy="62.5" rx="31.2" ry="1.7"/>
	</g>
</g>
<g id="Shape_24_copy_3_1_">
	<g>
		<path class="st3" d="M31.1,0C15.9,0,3.7,12.2,3.7,27.4c0,15.1,12.2,27.4,27.4,27.4c15.1,0,27.4-12.2,27.4-27.4
			C58.4,12.2,46.2,0,31.1,0z M10.4,16.7C14.7,2.6,29.1,1.6,33.9,2.3c8.8,1.3,14.5,6.7,14.5,6.7s-6.6-3.6-12.9-3.7
			c-5.6-0.1-11,3.2-11,3.2s-5.4,2.6-7.2,8.6c-2.3,7.5,2.7,8.6,2.7,8.6s2.7-4.9,6.8-2.1c4.3,2.9,1.8,7.9,1.8,7.9S27,34.5,22.3,35
			c-4,0.5-7.1-2.2-7.1-2.2S7.3,26.6,10.4,16.7z M7.7,36.1c-2.8-8.5-0.6-16-0.6-16s-0.2,7.5,2.5,13.2c2.4,5,7.8,8.3,7.8,8.3
			s4.7,3.6,11,2.5c7.7-1.3,6.5-6.3,6.5-6.3s-5.6-0.2-4.9-5.1c0.6-5.1,6.2-5.1,6.2-5.1s3.3,0,5.8,3.9c2.2,3.3,1.3,7.3,1.3,7.3
			s-2,9.9-12.2,11.7C16.7,53.1,9.2,40.7,7.7,36.1z M37.8,51.2c0,0,6.5-3.7,10-9.1c3-4.7,3.1-11,3.1-11s0.6-5.9-3.5-10.7
			c-5.1-5.9-8.8-2.3-8.8-2.3s2.8,4.8-1.8,6.9c-4.7,2.1-7.6-2.7-7.6-2.7s-1.7-2.8,0.3-7c1.7-3.6,5.6-4.9,5.6-4.9s9.5-3.4,16.3,4.3
			c9.7,11.1,3,23.9-0.1,27.6C45.3,49.2,37.8,51.2,37.8,51.2z"/>
	</g>
</g>
</svg>
